<svg width="800" height="800" viewBox="0 0 800 800" fill="none" xmlns="http://www.w3.org/2000/svg">
<g clip-path="url(#clip0_3860_7)">
<path d="M399.625 9.68743C400.319 9.68992 401.014 9.6924 401.729 9.69497C428.935 9.84473 454.632 15.6916 479 27.9999C480.758 28.8874 480.758 28.8874 482.551 29.7929C499.087 38.7379 513.78 50.7122 527 63.9999C528.222 65.222 528.222 65.222 529.469 66.4687C558.24 96.9084 575.467 140.089 575 182C575.663 181.829 576.326 181.657 577.009 181.481C590.598 178.004 603.958 174.734 618 174C618.733 173.961 619.466 173.923 620.221 173.883C665.668 171.913 707.75 188.763 742 218C742.804 218.681 743.609 219.361 744.437 220.062C749.427 224.378 753.773 228.947 758 234C758.737 234.826 759.475 235.653 760.234 236.504C774.968 253.373 785.514 273.276 792.812 294.375C793.078 295.127 793.344 295.879 793.618 296.654C799.009 313.112 800.664 329.763 800.521 346.993C800.5 350.065 800.521 353.134 800.547 356.205C800.588 384.818 792.136 410.779 779 436C778.34 436 777.68 436 777 436C776.876 436.577 776.752 437.155 776.625 437.75C775.993 440.023 775.111 441.925 774 444C773.34 444 772.68 444 772 444C772 444.99 772 445.98 772 447C771.34 447 770.68 447 770 447C770 447.99 770 448.98 770 450C769.34 450 768.68 450 768 450C767.752 450.722 767.505 451.444 767.25 452.187C765.877 455.276 764.276 457.51 762 460C761.34 460 760.68 460 760 460C759.64 461.114 759.64 461.114 759.273 462.25C757.818 465.394 756.283 466.81 753.625 469C750.328 471.802 747.66 474.58 745 478C740.459 482 740.459 482 738 482C737.67 482.99 737.34 483.98 737 485C734.937 485.687 734.937 485.687 733 486C733 486.66 733 487.32 733 488C731.68 488.33 730.36 488.66 729 489C729 489.66 729 490.32 729 491C725.515 493.6 721.715 495.745 718 498C717.132 498.561 716.265 499.121 715.371 499.699C705.551 505.831 694.748 509.798 684 514C685.497 517.89 687.28 521.13 689.562 524.625C713.898 563.247 720.574 610.644 710.969 654.969C706.057 675.82 696.6 694.545 686 713C685.34 713 684.68 713 684 713C683.67 714.32 683.34 715.64 683 717C682.34 717 681.68 717 681 717C680.67 718.32 680.34 719.64 680 721C679.34 721 678.68 721 678 721C677.34 722.65 676.68 724.3 676 726C675.34 726 674.68 726 674 726C673.773 726.722 673.546 727.444 673.312 728.187C671.746 731.543 669.706 733.57 667 736C666.216 736.706 665.432 737.413 664.625 738.141C662.877 739.712 661.126 741.28 659.371 742.844C657.532 744.516 655.779 746.206 654.062 748C652 750 652 750 649 751C649 751.66 649 752.32 649 753C647.102 754.508 647.102 754.508 644.625 756.125C643.813 756.664 643.001 757.203 642.164 757.758C640 759 640 759 638 759C638 759.66 638 760.32 638 761C634.501 762.919 631.001 764.835 627.5 766.75C626.518 767.289 625.535 767.828 624.523 768.383C621.688 769.933 618.846 771.47 616 773C614.955 773.566 614.955 773.566 613.889 774.143C608.401 777.012 602.68 779.042 596.812 781C595.77 781.348 594.728 781.696 593.654 782.055C583.597 785.307 573.441 787.423 563 789C561.892 789.175 560.785 789.35 559.643 789.53C527.128 793.72 493.212 787.473 464 773C463.355 772.688 462.71 772.377 462.046 772.056C445.855 764.181 431.8 753.589 419 741C417.828 739.867 416.656 738.734 415.484 737.602C414.321 736.465 413.16 735.327 412 734.187C411.472 733.673 410.944 733.158 410.399 732.627C406.788 729.022 403.877 725.215 401 721C400.216 721.825 399.432 722.65 398.625 723.5C396 726 396 726 394 726C393.66 726.835 393.66 726.835 393.312 727.687C392.006 729.99 390.527 731.563 388.621 733.379C385.689 736.31 383.011 739.479 380.281 742.598C377.994 745.006 375.693 747.057 373 749C372.34 749 371.68 749 371 749C370.67 749.99 370.34 750.98 370 752C367.437 753.187 367.437 753.187 365 754C365 754.66 365 755.32 365 756C362.903 757.511 360.819 758.893 358.625 760.25C357.985 760.652 357.345 761.054 356.686 761.468C355.393 762.278 354.097 763.084 352.799 763.887C351.271 764.832 349.75 765.79 348.23 766.75C311.696 789.414 263.833 795.939 222.179 786.784C206.078 782.814 190.417 777.227 176 769C175.066 768.482 175.066 768.482 174.114 767.955C134.38 745.843 104.731 708.245 91.5859 664.82C83.8504 637.476 82.0516 607.862 87.9999 580C88.1662 579.219 88.3325 578.438 88.5038 577.633C93.4989 555.095 102.738 533.246 117 515C115.84 514.492 114.68 513.984 113.484 513.461C108.644 511.334 103.82 509.172 98.9999 507C97.9326 506.523 96.8652 506.046 95.7655 505.555C82.1012 499.108 69.2961 489.978 57.9999 480C57.4809 479.547 56.9619 479.093 56.4272 478.626C48.8363 471.963 42.1427 465.054 35.9999 457C35.2626 456.067 34.5252 455.133 33.7656 454.172C18.9641 435.083 8.78468 413.441 2.99993 390C2.7314 389.003 2.46287 388.007 2.18621 386.98C-0.561177 375.48 -0.489604 364.035 -0.446119 352.268C-0.437624 348.77 -0.466434 345.275 -0.498121 341.777C-0.541055 328.364 0.397967 315.942 3.99993 303C4.44598 301.376 4.44598 301.376 4.90105 299.719C5.71349 296.987 6.60381 294.308 7.56243 291.625C7.90048 290.672 8.23854 289.719 8.58684 288.738C24.533 245.44 58.2824 209.906 99.7236 190.047C140.841 171.137 181.9 170.866 225 182C224.954 181.112 224.907 180.224 224.859 179.309C223.835 143.046 238.275 105.944 261 77.9999C261.662 77.1704 261.662 77.1704 262.338 76.3242C287.099 45.4432 320.15 23.5659 358.75 14.1874C359.552 13.9925 360.354 13.7975 361.181 13.5966C373.906 10.6955 386.593 9.6309 399.625 9.68743ZM362 356C360.465 356.75 360.465 356.75 358.898 357.516C352.802 360.498 352.802 360.498 347 364C347 364.66 347 365.32 347 366C345.35 366.66 343.7 367.32 342 368C342 368.66 342 369.32 342 370C341.101 370.392 341.101 370.392 340.184 370.793C337.869 372.072 336.703 373.262 335.062 375.312C333.315 377.479 331.583 379.396 329.559 381.32C315.103 396.46 310.488 418.722 310.576 438.883C310.891 452.462 313.594 464.961 320 477C320.418 477.875 320.835 478.75 321.266 479.652C331.156 499.461 349.287 514.146 370.091 521.228C394.245 528.907 418.744 527.279 441.559 516.285C450.243 511.755 457.141 505.937 464 499C464.813 498.197 465.627 497.394 466.465 496.566C481.982 480.412 489.581 458.019 489.351 435.838C488.556 409.838 478.493 388.098 460 370C440.381 351.629 416.186 347.075 390.173 347.812C380.237 348.401 370.831 351.476 362 356Z" fill="#FB2C36"/>
</g>
<defs>
<clipPath id="clip0_3860_7">
<rect width="800" height="800" fill="white"/>
</clipPath>
</defs>
</svg>
