<svg width="800" height="800" viewBox="0 0 800 800" fill="none" xmlns="http://www.w3.org/2000/svg">
<g clip-path="url(#clip0_3860_12)">
<path d="M399.625 9.68743C400.32 9.68992 401.014 9.6924 401.729 9.69497C428.935 9.84473 454.633 15.6916 479 27.9999C480.758 28.8874 480.758 28.8874 482.551 29.7929C499.087 38.7379 513.78 50.7122 527 63.9999C528.222 65.222 528.222 65.222 529.469 66.4687C558.241 96.9084 575.468 140.089 575 182C575.663 181.829 576.327 181.657 577.01 181.481C590.598 178.004 603.959 174.734 618 174C618.733 173.961 619.466 173.923 620.221 173.883C665.669 171.913 707.751 188.763 742 218C742.805 218.681 743.609 219.361 744.438 220.062C749.427 224.378 753.773 228.947 758 234C758.738 234.826 759.475 235.653 760.235 236.504C774.969 253.373 785.515 273.276 792.813 294.375C793.079 295.127 793.345 295.879 793.619 296.654C799.009 313.112 800.665 329.763 800.522 346.993C800.5 350.065 800.522 353.134 800.547 356.205C800.588 384.818 792.136 410.779 779 436C778.34 436 777.68 436 777 436C776.877 436.577 776.753 437.155 776.625 437.75C775.994 440.023 775.112 441.925 774 444C773.34 444 772.68 444 772 444C772 444.99 772 445.98 772 447C771.34 447 770.68 447 770 447C770 447.99 770 448.98 770 450C769.34 450 768.68 450 768 450C767.753 450.722 767.505 451.444 767.25 452.187C765.878 455.276 764.277 457.51 762 460C761.34 460 760.68 460 760 460C759.641 461.114 759.641 461.114 759.274 462.25C757.818 465.394 756.284 466.81 753.625 469C750.329 471.802 747.66 474.58 745 478C740.46 482 740.46 482 738 482C737.67 482.99 737.34 483.98 737 485C734.938 485.687 734.938 485.687 733 486C733 486.66 733 487.32 733 488C731.68 488.33 730.36 488.66 729 489C729 489.66 729 490.32 729 491C725.515 493.6 721.716 495.745 718 498C717.133 498.561 716.265 499.121 715.372 499.699C705.552 505.831 694.748 509.798 684 514C685.498 517.89 687.281 521.13 689.563 524.625C713.898 563.247 720.574 610.644 710.969 654.969C706.057 675.82 696.601 694.545 686 713C685.34 713 684.68 713 684 713C683.67 714.32 683.34 715.64 683 717C682.34 717 681.68 717 681 717C680.67 718.32 680.34 719.64 680 721C679.34 721 678.68 721 678 721C677.34 722.65 676.68 724.3 676 726C675.34 726 674.68 726 674 726C673.774 726.722 673.547 727.444 673.313 728.187C671.747 731.543 669.706 733.57 667 736C666.217 736.706 665.433 737.413 664.625 738.141C662.877 739.712 661.126 741.28 659.372 742.844C657.533 744.516 655.779 746.206 654.063 748C652 750 652 750 649 751C649 751.66 649 752.32 649 753C647.102 754.508 647.102 754.508 644.625 756.125C643.813 756.664 643.001 757.203 642.164 757.758C640 759 640 759 638 759C638 759.66 638 760.32 638 761C634.502 762.919 631.001 764.835 627.5 766.75C626.518 767.289 625.536 767.828 624.524 768.383C621.688 769.933 618.847 771.47 616 773C614.956 773.566 614.956 773.566 613.89 774.143C608.401 777.012 602.681 779.042 596.813 781C595.771 781.348 594.729 781.696 593.655 782.055C583.597 785.307 573.441 787.423 563 789C561.893 789.175 560.785 789.35 559.644 789.53C527.128 793.72 493.212 787.473 464 773C463.356 772.688 462.711 772.377 462.046 772.056C445.856 764.181 431.801 753.589 419 741C417.829 739.867 416.657 738.734 415.485 737.602C414.322 736.465 413.16 735.327 412 734.187C411.472 733.673 410.944 733.158 410.4 732.627C406.789 729.022 403.878 725.215 401 721C400.217 721.825 399.433 722.65 398.625 723.5C396 726 396 726 394 726C393.66 726.835 393.66 726.835 393.313 727.687C392.006 729.99 390.528 731.563 388.622 733.379C385.69 736.31 383.011 739.479 380.282 742.598C377.994 745.006 375.693 747.057 373 749C372.34 749 371.68 749 371 749C370.67 749.99 370.34 750.98 370 752C367.438 753.187 367.438 753.187 365 754C365 754.66 365 755.32 365 756C362.904 757.511 360.819 758.893 358.625 760.25C357.986 760.652 357.346 761.054 356.687 761.468C355.393 762.278 354.098 763.084 352.8 763.887C351.271 764.832 349.75 765.79 348.231 766.75C311.697 789.414 263.833 795.939 222.179 786.784C206.078 782.814 190.418 777.227 176 769C175.067 768.482 175.067 768.482 174.115 767.955C134.381 745.843 104.732 708.245 91.5863 664.82C83.8509 637.476 82.0521 607.862 88.0004 580C88.1667 579.219 88.333 578.438 88.5043 577.633C93.4994 555.095 102.739 533.246 117 515C115.84 514.492 114.68 513.984 113.485 513.461C108.645 511.334 103.82 509.172 99.0004 507C97.9331 506.523 96.8657 506.046 95.766 505.555C82.1017 499.108 69.2966 489.978 58.0004 480C57.4814 479.547 56.9624 479.093 56.4277 478.626C48.8368 471.963 42.1432 465.054 36.0004 457C35.2631 456.067 34.5257 455.133 33.766 454.172C18.9646 435.083 8.78516 413.441 3.00041 390C2.73189 389.003 2.46336 388.007 2.18669 386.98C-0.560688 375.48 -0.489116 364.035 -0.445631 352.268C-0.437136 348.77 -0.465946 345.275 -0.497633 341.777C-0.540567 328.364 0.398455 315.942 4.00041 303C4.44647 301.376 4.44647 301.376 4.90154 299.719C5.71398 296.987 6.6043 294.308 7.56291 291.625C7.90097 290.672 8.23903 289.719 8.58733 288.738C24.5335 245.44 58.2829 209.906 99.724 190.047C140.842 171.137 181.9 170.866 225 182C224.954 181.112 224.908 180.224 224.86 179.309C223.835 143.046 238.275 105.944 261 77.9999C261.663 77.1704 261.663 77.1704 262.339 76.3242C287.1 45.4432 320.15 23.5659 358.75 14.1874C359.553 13.9925 360.355 13.7975 361.181 13.5966C373.906 10.6955 386.594 9.6309 399.625 9.68743ZM362 356C360.465 356.75 360.465 356.75 358.899 357.516C352.802 360.498 352.802 360.498 347 364C347 364.66 347 365.32 347 366C345.35 366.66 343.7 367.32 342 368C342 368.66 342 369.32 342 370C341.101 370.392 341.101 370.392 340.184 370.793C337.87 372.072 336.704 373.262 335.063 375.312C333.315 377.479 331.584 379.396 329.559 381.32C315.103 396.46 310.489 418.722 310.577 438.883C310.892 452.462 313.595 464.961 320 477C320.418 477.875 320.836 478.75 321.266 479.652C331.156 499.461 349.288 514.146 370.092 521.228C394.246 528.907 418.745 527.279 441.559 516.285C450.244 511.755 457.142 505.937 464 499C464.814 498.197 465.627 497.394 466.465 496.566C481.983 480.412 489.581 458.019 489.352 435.838C488.556 409.838 478.494 388.098 460 370C440.382 351.629 416.187 347.075 390.174 347.812C380.237 348.401 370.832 351.476 362 356Z" fill="#FFD60A"/>
</g>
<defs>
<clipPath id="clip0_3860_12">
<rect width="800" height="800" fill="white"/>
</clipPath>
</defs>
</svg>
