<svg width="512" height="512" viewBox="0 0 512 512" fill="none" xmlns="http://www.w3.org/2000/svg">
<path d="M252.031 32.8437C275.795 32.2014 296.252 40.4462 313.699 56.5852C328.706 71.1557 336.527 91.3689 338 112C343.754 111.224 348.773 109.319 354.172 107.254C372.842 100.735 394.55 102.536 412.365 110.736C419.64 114.297 426.033 118.486 432 124C432.926 124.846 433.851 125.691 434.805 126.562C449.811 140.878 459.112 160.06 460.203 180.875C460.592 201.386 454.377 217.594 444 235C443.34 235 442.68 235 442 235C441.759 235.741 441.518 236.482 441.27 237.246C439.827 240.375 438.305 241.85 435.688 244.062C434.882 244.747 434.076 245.431 433.246 246.137C432.505 246.752 431.764 247.366 431 248C430.093 248.784 429.185 249.567 428.25 250.375C425.914 252.062 423.718 253.068 421 254C421 255.32 421 256.64 421 258C421.572 258.265 422.145 258.531 422.735 258.805C439.671 267.74 450.947 285.346 457 303C464.058 327.756 458.632 349.627 447 372C446.34 372 445.68 372 445 372C445 372.99 445 373.98 445 375C444.34 375 443.68 375 443 375C442.835 375.681 442.67 376.361 442.5 377.062C440.65 380.685 438.282 382.602 435.168 385.156C432.899 387.023 432.899 387.023 430.656 389.441C415.509 404.032 393.832 408.543 373.559 408.285C363.27 407.932 352.905 405.556 343.762 400.734C341.703 399.743 341.703 399.743 338 400C337.914 400.909 337.827 401.818 337.738 402.754C336.242 416.143 332.589 428.144 326 440C325.443 441.031 324.886 442.062 324.313 443.125C323.88 443.744 323.446 444.362 323 445C322.34 445 321.68 445 321 445C320.938 445.557 320.876 446.114 320.813 446.687C319.015 451.804 313.717 455.165 309.649 458.57C308.001 459.949 308.001 459.949 306.656 461.437C292.774 474.534 271.182 479.772 252.567 479.285C229.798 477.465 209.391 467.997 194 451C182.041 436.689 174.877 418.64 174 400C168.728 400.676 163.989 402.255 159 404C139.634 410.775 118.329 409.868 99.6349 401.264C92.3576 397.702 85.9742 393.51 80.0002 388C79.0862 387.178 78.1723 386.355 77.2306 385.508C62.2258 371.345 52.7322 351.683 51.7619 330.977C51.169 307.477 58.5477 287.624 74.6994 270.328C84.7088 260.2 84.7088 260.2 91.0002 258C90.6848 255.023 90.1534 254.128 87.8127 252.176C86.8845 251.561 85.9564 250.946 85.0002 250.312C67.4131 237.929 56.1676 219.19 52.4689 197.988C49.4933 175.474 54.8743 154.18 68.5353 136.121C69.3487 135.091 70.1621 134.061 71.0002 133C71.6178 132.218 71.6178 132.218 72.248 131.42C84.4904 116.277 103.746 106.392 123 104C138.546 103 154.195 103.859 168.238 111.266C170.297 112.256 170.297 112.256 174 112C174.13 110.654 174.13 110.654 174.262 109.281C176.947 85.4353 186.4 66.4262 204.719 50.6601C218.486 40.1119 234.727 33.7357 252.031 32.8437ZM205 186C205 186.66 205 187.32 205 188C204.278 188.227 203.556 188.454 202.813 188.687C197.616 191.113 194.486 195.584 191 200C190.423 200.557 189.845 201.114 189.25 201.687C187.77 202.939 187.77 202.939 188 205C187.34 205 186.68 205 186 205C172.486 227.366 166.306 250.237 172.024 276.18C175.678 290.476 182.275 302.944 192 314C193 315.143 193 315.143 194.02 316.309C208.817 332.149 230.575 341.018 252.004 342.16C275.872 342.785 297.136 334.846 315 319C315.71 318.385 316.421 317.77 317.152 317.137C331.95 303.453 340.922 281.904 342 262C342.053 261.06 342.106 260.12 342.16 259.152C342.808 236.41 335.027 215.082 320 198C319.334 197.238 318.667 196.476 317.981 195.691C303.128 179.792 281.254 170.896 259.738 169.84C239.802 169.361 221.656 174.896 205 186Z" fill="#51B3B0"/>
<path d="M303.133 189.203C305.86 191.375 308.442 193.633 311 196C311.778 196.686 312.555 197.372 313.356 198.078C322.978 207.021 329.813 218.603 334 231C334.319 231.922 334.637 232.843 334.965 233.793C341.62 257.01 336.186 279.471 325 300C324.67 300.66 324.34 301.32 324 302C323.34 302 322.68 302 322 302C322 302.99 322 303.98 322 305C320.813 306.312 320.813 306.312 319 308C318.139 309.057 317.285 310.12 316.438 311.187C315.633 312.116 314.829 313.044 314 314C313.34 314 312.68 314 312 314C311.66 314.928 311.66 314.928 311.313 315.875C309.621 318.614 308.008 319.05 305 320C305 320.66 305 321.32 305 322C284.22 334.684 261.905 340.989 237.412 335.974C224.221 332.701 211.983 326.184 202 317C201.171 316.263 200.343 315.525 199.489 314.766C184.942 301.132 175.438 282.131 174.664 262.082C174.332 239.214 179.165 219.213 195 202C195.738 201.171 196.475 200.342 197.235 199.488C224.584 170.307 270.576 166.308 303.133 189.203Z" fill="#51B3B0"/>
</svg>
